<?xml version="1.0" encoding="utf-8"?>
<!-- Generator: Adobe Illustrator 17.0.0, SVG Export Plug-In . SVG Version: 6.00 Build 0)  -->
<!DOCTYPE svg PUBLIC "-//W3C//DTD SVG 1.1//EN" "http://www.w3.org/Graphics/SVG/1.1/DTD/svg11.dtd">
<svg version="1.1" id="Calque_1" xmlns="http://www.w3.org/2000/svg" xmlns:xlink="http://www.w3.org/1999/xlink" x="0px" y="0px"
	 width="2174.325px" height="2174.325px" viewBox="0 0 2174.325 2174.325" enable-background="new 0 0 2174.325 2174.325"
	 xml:space="preserve">
<g>
	<path d="M1165.074,1853.521l-564.207-237.127L367.168,1055.61l233.699-567.625l564.207-230.281l564.207,230.281l233.699,567.625
		l-233.699,560.784L1165.074,1853.521z M609.347,1607.946l555.727,233.558l555.727-233.558l230.194-552.358l-230.194-559.102
		l-555.727-226.82l-555.727,226.82l-230.194,559.102L609.347,1607.946z"/>
	<path d="M1730.579,1617.708H599.569V486.698h1131.01V1617.708z M610.645,1606.632h1108.858V497.774H610.645V1606.632z"/>
	<path d="M1165.074,1855.344L365.33,1055.599l799.744-799.744l799.744,799.744L1165.074,1855.344z M380.991,1055.599
		l784.083,784.083l784.083-784.083l-784.083-784.083L380.991,1055.599z"/>
	<circle cx="605.105" cy="1612.171" r="58.966"/>
	<circle cx="1962.98" cy="1059.882" r="58.966"/>
	<circle cx="605.105" cy="492.236" r="71.63"/>
	<circle cx="1725.039" cy="1612.171" r="93.891"/>
	<circle cx="373.159" cy="1059.882" r="220.779"/>
	<circle cx="1730.579" cy="492.236" r="174.309"/>
	<circle cx="1165.072" cy="1853.521" r="165.098"/>
	<circle cx="1165.072" cy="274.763" r="119.057"/>
	<path d="M987.648,793.884h38.9l61.124,222.937h-40.523l-14.386-52.953h-53.286l-14.705,52.953h-40.536L987.648,793.884z
		 M986.344,932.807h39.552l-10.793-43.797c-2.941-12.417-6.202-29.091-8.171-41.508h-1.304c-2.608,13.721-5.563,28.759-8.823,41.841
		L986.344,932.807z"/>
	<path d="M1249.898,1016.821h-46.419l-43.797-89.244h-10.141v89.244h-40.523V793.884h61.443c50.997,0,68.976,34.322,68.976,65.05
		c0,33.017-17.646,56.879-40.856,63.094L1249.898,1016.821z M1168.505,828.206h-18.964v67.339h19.297
		c20.255,0,29.092-16.342,29.092-33.337C1197.93,841.288,1188.441,828.206,1168.505,828.206z"/>
	<path d="M1393.811,830.175h-76.814v53.938h73.554v34.974h-73.554v61.124h79.436v36.611h-119.973V793.884h117.351V830.175z"/>
	<path d="M944.503,1097.714h57.85c40.869,0,75.51,22.557,75.51,71.265c0,43.797-27.455,71.265-77.466,71.265H985.04v80.408h-40.536
		V1097.714z M1000.397,1132.035H985.04v73.887h14.705c29.424,0,36.611-17.008,36.611-36.611
		C1036.356,1147.406,1026.229,1132.035,1000.397,1132.035z"/>
	<path d="M1110.322,1285.996h38.9v-153.629h-37.263v-34.654h115.062v34.654h-37.263v153.629h38.886v34.654h-118.322V1285.996z"/>
	<path d="M1404.604,1161.127h-41.521c-2.289-26.137-15.038-32.033-27.455-32.033c-17.327,0-34.322,16.675-34.322,79.769
		c0,58.183,15.358,80.408,35.626,80.408c12.097,0,23.861-5.563,27.135-36.611h41.841c-5.563,54.59-33.989,73.221-68.976,73.221
		c-46.086,0-76.814-33.337-76.814-117.351c0-84.001,33.35-116.047,76.814-116.047
		C1377.15,1092.483,1401.33,1120.271,1404.604,1161.127z"/>
</g>
</svg>
