<?xml version="1.0" encoding="utf-8"?>
<!-- Generator: Adobe Illustrator 17.0.0, SVG Export Plug-In . SVG Version: 6.00 Build 0)  -->
<!DOCTYPE svg PUBLIC "-//W3C//DTD SVG 1.1//EN" "http://www.w3.org/Graphics/SVG/1.1/DTD/svg11.dtd">
<svg version="1.1" id="Calque_1" xmlns="http://www.w3.org/2000/svg" xmlns:xlink="http://www.w3.org/1999/xlink" x="0px" y="0px"
	 width="2222.053px" height="2222.053px" viewBox="0 0 2222.053 2222.053" enable-background="new 0 0 2222.053 2222.053"
	 xml:space="preserve">
<g>
	<path fill="#1D1D1B" d="M1188.938,1877.385l-564.207-237.127l-233.699-560.784l233.699-567.625l564.207-230.281l564.207,230.281
		l233.699,567.625l-233.699,560.784L1188.938,1877.385z M633.211,1631.81l555.727,233.558l555.727-233.558l230.194-552.358
		l-230.194-559.102l-555.727-226.82l-555.727,226.82l-230.194,559.102L633.211,1631.81z"/>
	<path fill="#1D1D1B" d="M1754.443,1641.572H623.433V510.562h1131.01V1641.572z M634.509,1630.496h1108.858V521.638H634.509
		V1630.496z"/>
	<path fill="#1D1D1B" d="M1188.938,1879.207l-799.744-799.744l799.744-799.744l799.744,799.744L1188.938,1879.207z
		 M404.855,1079.463l784.083,784.083l784.083-784.083l-784.083-784.082L404.855,1079.463z"/>
	<circle fill="#1D1D1B" cx="628.968" cy="1636.034" r="58.966"/>
	<circle fill="#1D1D1B" cx="1986.843" cy="1083.746" r="58.966"/>
	<circle fill="#1D1D1B" cx="628.968" cy="516.1" r="71.63"/>
	<circle fill="#1D1D1B" cx="1748.903" cy="1636.034" r="93.891"/>
	<circle fill="#1D1D1B" cx="397.022" cy="1083.746" r="220.779"/>
	<circle fill="#1D1D1B" cx="1754.443" cy="516.1" r="174.309"/>
	<circle fill="#1D1D1B" cx="1188.936" cy="1877.385" r="165.098"/>
	<circle fill="#1D1D1B" cx="1188.936" cy="298.627" r="119.057"/>
	<path fill="#1D1D1B" d="M1011.512,817.748h38.9l61.124,222.937h-40.523l-14.386-52.953h-53.286l-14.705,52.953h-40.536
		L1011.512,817.748z M1010.208,956.671h39.552l-10.793-43.797c-2.941-12.416-6.202-29.091-8.171-41.508h-1.304
		c-2.608,13.721-5.563,28.759-8.823,41.841L1010.208,956.671z"/>
	<path fill="#1D1D1B" d="M1273.761,1040.685h-46.419l-43.797-89.244h-10.141v89.244h-40.523V817.748h61.443
		c50.997,0,68.976,34.322,68.976,65.05c0,33.017-17.646,56.879-40.856,63.094L1273.761,1040.685z M1192.369,852.069h-18.964v67.339
		h19.297c20.255,0,29.092-16.342,29.092-33.337C1221.793,865.151,1212.305,852.069,1192.369,852.069z"/>
	<path fill="#1D1D1B" d="M1417.675,854.039h-76.814v53.938h73.554v34.974h-73.554v61.124h79.436v36.611h-119.972V817.748h117.351
		V854.039z"/>
	<path fill="#1D1D1B" d="M968.367,1121.577h57.85c40.869,0,75.51,22.557,75.51,71.265c0,43.797-27.455,71.265-77.466,71.265h-15.358
		v80.408h-40.536V1121.577z M1024.261,1155.899h-15.358v73.887h14.705c29.424,0,36.611-17.008,36.611-36.611
		C1060.22,1171.27,1050.092,1155.899,1024.261,1155.899z"/>
	<path fill="#1D1D1B" d="M1134.186,1309.86h38.9v-153.629h-37.263v-34.654h115.062v34.654h-37.263v153.629h38.886v34.654h-118.322
		V1309.86z"/>
	<path fill="#1D1D1B" d="M1428.468,1184.99h-41.521c-2.289-26.137-15.038-32.033-27.455-32.033
		c-17.327,0-34.322,16.675-34.322,79.769c0,58.183,15.358,80.407,35.626,80.407c12.097,0,23.861-5.563,27.135-36.611h41.841
		c-5.563,54.59-33.989,73.221-68.976,73.221c-46.086,0-76.814-33.337-76.814-117.351c0-84.001,33.35-116.047,76.814-116.047
		C1401.013,1116.347,1425.194,1144.134,1428.468,1184.99z"/>
</g>
</svg>
