<?xml version="1.0" encoding="utf-8"?>
<!-- Generator: Adobe Illustrator 17.0.0, SVG Export Plug-In . SVG Version: 6.00 Build 0)  -->
<!DOCTYPE svg PUBLIC "-//W3C//DTD SVG 1.1//EN" "http://www.w3.org/Graphics/SVG/1.1/DTD/svg11.dtd">
<svg version="1.1" id="Calque_1" xmlns="http://www.w3.org/2000/svg" xmlns:xlink="http://www.w3.org/1999/xlink" x="0px" y="0px"
	 width="2160.815px" height="2160.815px" viewBox="0 0 2160.815 2160.815" enable-background="new 0 0 2160.815 2160.815"
	 xml:space="preserve">
<path d="M1158.319,1846.766l-564.207-237.127l-233.699-560.784L594.112,481.23l564.207-230.281l564.207,230.281l233.699,567.625
	l-233.699,560.784L1158.319,1846.766z M602.592,1601.191l555.727,233.558l555.727-233.558l230.194-552.358l-230.194-559.102
	l-555.727-226.82l-555.727,226.82l-230.194,559.102L602.592,1601.191z"/>
<path d="M1723.824,1610.953H592.814V479.943h1131.01V1610.953z M603.89,1599.877h1108.858V491.019H603.89V1599.877z"/>
<path d="M1158.319,1848.589l-799.744-799.744L1158.319,249.1l799.744,799.744L1158.319,1848.589z M374.236,1048.844l784.083,784.083
	l784.083-784.083l-784.083-784.083L374.236,1048.844z"/>
<circle fill="#F07F09" cx="598.35" cy="1605.415" r="58.966"/>
<circle cx="1956.224" cy="1053.127" r="58.966"/>
<circle fill="#008EAB" cx="598.35" cy="485.481" r="71.63"/>
<circle fill="#6A8BB0" cx="1718.284" cy="1605.416" r="93.891"/>
<circle fill="#002E5A" cx="366.403" cy="1053.127" r="220.779"/>
<circle fill="#FFD703" cx="1723.824" cy="485.481" r="174.309"/>
<circle fill="#80BA27" cx="1158.317" cy="1846.766" r="165.098"/>
<circle fill="#E63237" cx="1158.317" cy="268.008" r="119.057"/>
<path d="M980.893,787.129h38.9l61.124,222.937h-40.523l-14.386-52.953h-53.286l-14.705,52.953H917.48L980.893,787.129z
	 M979.589,926.052h39.552l-10.793-43.797c-2.941-12.416-6.202-29.091-8.171-41.508h-1.304c-2.608,13.721-5.563,28.759-8.823,41.841
	L979.589,926.052z"/>
<path d="M1243.143,1010.066h-46.419l-43.797-89.244h-10.141v89.244h-40.523V787.129h61.443c50.997,0,68.976,34.322,68.976,65.05
	c0,33.017-17.647,56.879-40.856,63.094L1243.143,1010.066z M1161.75,821.451h-18.964v67.339h19.297
	c20.255,0,29.091-16.342,29.091-33.337C1191.174,834.532,1181.686,821.451,1161.75,821.451z"/>
<path d="M1387.056,823.42h-76.814v53.938h73.554v34.974h-73.554v61.124h79.436v36.611h-119.973V787.129h117.351V823.42z"/>
<path d="M937.748,1090.958h57.85c40.869,0,75.51,22.557,75.51,71.265c0,43.797-27.455,71.265-77.466,71.265h-15.358v80.407h-40.536
	V1090.958z M993.642,1125.28h-15.358v73.886h14.705c29.424,0,36.611-17.008,36.611-36.61
	C1029.601,1140.651,1019.473,1125.28,993.642,1125.28z"/>
<path d="M1103.567,1279.241h38.9v-153.629h-37.263v-34.654h115.062v34.654h-37.263v153.629h38.886v34.654h-118.322V1279.241z"/>
<path d="M1397.849,1154.371h-41.521c-2.289-26.137-15.038-32.033-27.455-32.033c-17.327,0-34.322,16.675-34.322,79.769
	c0,58.183,15.358,80.407,35.626,80.407c12.097,0,23.861-5.563,27.135-36.611h41.841c-5.563,54.59-33.989,73.221-68.976,73.221
	c-46.086,0-76.814-33.337-76.814-117.351c0-84.001,33.35-116.047,76.814-116.047
	C1370.395,1085.728,1394.575,1113.516,1397.849,1154.371z"/>
</svg>
