<?xml version="1.0" encoding="utf-8"?>
<!-- Generator: Adobe Illustrator 17.0.0, SVG Export Plug-In . SVG Version: 6.00 Build 0)  -->
<!DOCTYPE svg PUBLIC "-//W3C//DTD SVG 1.1//EN" "http://www.w3.org/Graphics/SVG/1.1/DTD/svg11.dtd">
<svg version="1.1" id="Calque_1" xmlns="http://www.w3.org/2000/svg" xmlns:xlink="http://www.w3.org/1999/xlink" x="0px" y="0px"
	 width="2211.931px" height="2211.931px" viewBox="0 0 2211.931 2211.931" enable-background="new 0 0 2211.931 2211.931"
	 xml:space="preserve">
<g>
	<path d="M1183.766,1871.228l-563.4-236.788l-233.364-559.982l233.364-566.813l563.4-229.951l563.4,229.951l233.365,566.813
		l-233.365,559.982L1183.766,1871.228z M628.833,1626.005l554.933,233.224l554.932-233.224l229.865-551.568l-229.865-558.302
		l-554.932-226.495L628.833,516.134l-229.865,558.302L628.833,1626.005z"/>
	<path d="M1748.462,1635.752H619.069V506.36h1129.393V1635.752z M630.129,1624.693h1107.273V517.42H630.129V1624.693z"/>
	<path d="M1183.766,1873.048l-798.601-798.601l798.601-798.601l798.601,798.601L1183.766,1873.048z M400.804,1074.448
		l782.961,782.961l782.961-782.961l-782.961-782.961L400.804,1074.448z"/>
	<circle fill="#EF7C00" cx="624.597" cy="1630.223" r="58.882"/>
	<circle cx="1980.53" cy="1078.724" r="58.882"/>
	<circle fill="#008CA8" cx="624.597" cy="511.89" r="71.527"/>
	<circle fill="#6A8BAF" cx="1742.93" cy="1630.223" r="93.757"/>
	<circle fill="#002855" cx="392.982" cy="1078.724" r="220.463"/>
	<circle fill="#FFD500" cx="1748.462" cy="511.889" r="174.06"/>
	<circle fill="#7FB927" cx="1183.764" cy="1871.228" r="164.862"/>
	<circle fill="#E53137" cx="1183.764" cy="294.728" r="118.887"/>
	<path d="M1006.594,813.106h38.844l61.037,222.618h-40.465l-14.365-52.877h-53.209l-14.684,52.877h-40.479L1006.594,813.106z
		 M1005.291,951.831h39.495l-10.777-43.734c-2.937-12.399-6.193-29.05-8.159-41.449h-1.302c-2.605,13.701-5.555,28.718-8.811,41.781
		L1005.291,951.831z"/>
	<path d="M1268.468,1035.725h-46.352l-43.734-89.116h-10.126v89.116h-40.465V813.106h61.356c50.924,0,68.877,34.273,68.877,64.957
		c0,32.97-17.621,56.797-40.797,63.003L1268.468,1035.725z M1187.192,847.379h-18.937v67.243h19.269
		c20.226,0,29.05-16.319,29.05-33.289C1216.574,860.442,1207.099,847.379,1187.192,847.379z"/>
	<path d="M1412.176,849.346h-76.705v53.861h73.449v34.924h-73.449v61.037h79.323v36.558h-119.801V813.106h117.183V849.346z"/>
	<path d="M963.51,1116.501h57.768c40.811,0,75.402,22.525,75.402,71.163c0,43.734-27.415,71.163-77.356,71.163h-15.336v80.293
		H963.51V1116.501z M1019.325,1150.774h-15.336v73.781h14.684c29.382,0,36.558-16.983,36.558-36.558
		C1055.232,1166.123,1045.119,1150.774,1019.325,1150.774z"/>
	<path d="M1129.092,1304.515h38.844v-153.409h-37.209v-34.605h114.897v34.605h-37.209v153.409h38.831v34.605h-118.153V1304.515z"/>
	<path d="M1422.953,1179.824h-41.462c-2.286-26.1-15.017-31.987-27.415-31.987c-17.302,0-34.272,16.651-34.272,79.655
		c0,58.1,15.336,80.292,35.575,80.292c12.08,0,23.827-5.555,27.096-36.558h41.781c-5.555,54.512-33.94,73.116-68.877,73.116
		c-46.02,0-76.705-33.289-76.705-117.183c0-83.881,33.302-115.881,76.705-115.881
		C1395.538,1111.279,1419.684,1139.026,1422.953,1179.824z"/>
</g>
</svg>
