<?xml version="1.0" encoding="utf-8"?>
<!-- Generator: Adobe Illustrator 21.0.2, SVG Export Plug-In . SVG Version: 6.00 Build 0)  -->
<svg version="1.1" id="TEXTES" xmlns="http://www.w3.org/2000/svg" xmlns:xlink="http://www.w3.org/1999/xlink" x="0px" y="0px"
	 viewBox="0 0 832 401.4" style="enable-background:new 0 0 832 401.4;" xml:space="preserve">
<style type="text/css">
	.st0{fill:#FFFFFF;}
	.st1{fill:none;}
</style>
<g>
	<path class="st0" d="M92.2,92.2v127.3c0,53,39.7,88.7,92,88.7c14.1,0,27.3-2.6,39.1-7.5l0,0l22-9.2l31.3,14.3V92.2H92.2z
		 M184.2,261.1l-40.8-18.6V133.2h40.8V261.1z M237,242.9l-39.8,18.2v-21.7l39.8-18.2V242.9z"/>
	<path class="st0" d="M476,176.5c-4.8-9.6-11.2-26.1-12.5-43.2c-1.8,0-10,0-10,0s2.4,30.9,17.4,51.5h10.4
		c15-20.6,17.4-51.5,17.4-51.5s-8.3,0-10,0C487.2,150.5,480.9,167,476,176.5z"/>
	<path class="st0" d="M680.9,112.7h-10.3v20.6h-6.3v7.9h6.3V170c0,7.9,4.1,14.8,14.3,14.8h5.5v-9.2h-3.7c-4.3,0-5.8-2.1-5.8-6.2
		v-28.2h9.5v-7.9h-9.5V112.7z"/>
	<path class="st0" d="M353.1,160.1c0,9.6-5.9,15.7-15,15.7c-9.1,0-15-6.2-15-15.7v-47.3h-10.5v47.8c0,7,2.6,13.4,7.3,17.8
		c4.6,4.4,11.1,6.8,18.2,6.8c5.8,0,11.2-1.6,15.5-4.6l10.1,4.6v-72.5h-10.5V160.1z"/>
	<path class="st0" d="M413.7,137.7c-3-2.9-8-5.1-15.4-5.1c-4.9,0-9.3,1.8-12.2,3.8l-8.4-3.8v52.3H388v-31.2c0-8,4.5-11.4,10.3-11.4
		c5.8,0,10.3,3.4,10.3,11.4v31.2h10.3v-32.7C418.9,146.3,417.6,141.5,413.7,137.7z"/>
	<path class="st0" d="M567.9,153.6c0-8,4.5-11.4,10.3-11.4c2,0,3.9,0.4,5.4,1.3c1.8-2.9,3.7-6,5.5-8.9c-2.8-1.3-6.4-2.1-10.9-2.1
		c-4.9,0-9.3,1.8-12.2,3.8l-8.4-3.8v52.3h10.3V153.6z"/>
	<rect x="431.8" y="133.3" class="st0" width="10.3" height="51.5"/>
	<rect x="431.8" y="112.7" class="st0" width="10.3" height="10.3"/>
	<rect x="642.8" y="133.3" class="st0" width="10.3" height="51.5"/>
	<rect x="642.8" y="112.7" class="st0" width="10.3" height="10.3"/>
	<rect x="483.5" y="233.5" class="st0" width="10.3" height="51.5"/>
	<rect x="483.5" y="212.9" class="st0" width="10.3" height="10.3"/>
	<path class="st0" d="M528.4,185.6c4.4,0,7.9-0.7,11-2c2.8-1.2,5.3-3.1,8.2-6l-6.1-5.8c-1.8,1.9-3.6,3.1-5.6,3.8
		c-2,0.7-4.2,1.1-7.3,1.1c-6.3,0-10.7-3.2-12.4-9l0,0l0,0c5.1-0.7,14.6-1.5,22.5-5.8c3.9-2.1,6.7-4.5,8-8c1-2.7,1.4-6.2,0.6-9.3
		c-1.2-4.2-3.1-6.7-6.2-8.8c-3.5-2.3-8.3-3.1-14-3.1c-3.4,0-6.6,0.6-9.3,1.8c-2.7,1.2-5,2.9-6.8,5.2c-1.9,2.3-3.3,5.1-4.2,8.3
		c-1,3.3-1.4,7.1-1.4,11.2c0,9.2,2.3,16.2,6.7,20.7C516,183.6,521.5,185.6,528.4,185.6z M515.5,154.8c0.1-1.5,0.1-2.7,0.3-3.8
		c0.2-1.1,0.5-2,1-3.2c1.5-3.6,5.4-5.8,10.3-5.8c3.5,0,8,0.6,10.1,3.6c0.5,0.7,1.2,2.4,0.5,4.4c-0.8,2.4-3.1,4.5-7.1,6
		c-5.3,2-11.3,2.9-15.1,3.3l0,0V154.8z"/>
	<path class="st0" d="M398.3,262c3.9-2.1,6.7-4.5,8-8c1-2.7,1.4-6.2,0.6-9.3c-1.2-4.2-3.1-6.7-6.2-8.8c-3.5-2.3-8.3-3.1-14-3.1
		c-3.4,0-6.6,0.6-9.3,1.8c-2.7,1.2-5,2.9-6.8,5.2c-1.8,2.3-3.3,5.1-4.2,8.3c-1,3.3-1.4,7.1-1.4,11.2c0,9.2,2.3,16.2,6.7,20.7
		c3.9,3.9,9.4,5.9,16.4,5.9c4.4,0,7.9-0.6,11-2c2.8-1.2,5.3-3.1,8.2-6l-6.1-5.8c-1.8,1.9-3.6,3.1-5.6,3.8c-2,0.7-4.2,1.1-7.3,1.1
		c-6.3,0-10.7-3.2-12.4-9l0,0l0,0C381,267.1,390.4,266.3,398.3,262z M375.2,259.5L375.2,259.5l0-4.4c0.1-1.5,0.1-2.7,0.3-3.8
		c0.2-1.1,0.5-2,1-3.2c1.5-3.6,5.4-5.8,10.3-5.8c3.5,0,8,0.6,10.1,3.6c0.5,0.7,1.2,2.4,0.5,4.4c-0.8,2.4-3.1,4.5-7.1,6
		C385,258.1,379,259.1,375.2,259.5z"/>
	<path class="st0" d="M596.9,262c3.9-2.1,6.7-4.5,8-8c1-2.7,1.4-6.2,0.6-9.3c-1.2-4.2-3.1-6.7-6.2-8.8c-3.5-2.3-8.3-3.1-14-3.1
		c-3.4,0-6.6,0.6-9.3,1.8c-2.7,1.2-5,2.9-6.8,5.2c-1.8,2.3-3.3,5.1-4.2,8.3c-1,3.3-1.4,7.1-1.4,11.2c0,9.2,2.3,16.2,6.7,20.7
		c3.9,3.9,9.4,5.9,16.4,5.9c4.4,0,7.9-0.6,11-2c2.8-1.2,5.3-3.1,8.2-6l-6.1-5.8c-1.8,1.9-3.6,3.1-5.6,3.8c-2,0.7-4.2,1.1-7.3,1.1
		c-6.3,0-10.8-3.2-12.4-9l0,0l0,0C579.5,267.1,589,266.3,596.9,262z M573.7,259.5L573.7,259.5l0-4.4c0.1-1.5,0.1-2.7,0.3-3.8
		c0.2-1.1,0.5-2,1-3.2c1.5-3.6,5.4-5.8,10.3-5.8c3.5,0,8,0.6,10.1,3.6c0.5,0.7,1.2,2.4,0.5,4.4c-0.8,2.4-3.1,4.5-7.1,6
		C583.5,258.1,577.5,259.1,573.7,259.5z"/>
	<path class="st0" d="M728,175.5c-2,0.7-4.2,1.1-7.3,1.1c-6.3,0-10.7-3.2-12.4-9l0,0l0,0c5.1-0.7,14.6-1.5,22.5-5.8
		c3.9-2.1,6.7-4.5,8-8c1-2.7,1.4-6.2,0.6-9.3c-1.2-4.2-3.1-6.7-6.2-8.8c-3.5-2.3-8.3-3.1-14-3.1c-3.4,0-6.6,0.6-9.3,1.8
		c-2.7,1.2-5,2.9-6.8,5.2c-1.8,2.3-3.3,5.1-4.2,8.3c-1,3.3-1.4,7.1-1.4,11.2c0,9.2,2.3,16.2,6.7,20.7c3.9,3.9,9.4,5.9,16.4,5.9
		c4.4,0,7.9-0.7,11-2c2.8-1.2,5.3-3.1,8.2-6l-6.1-5.8C731.8,173.6,730,174.8,728,175.5z M707.6,159.3v-4.4c0.1-1.5,0.1-2.7,0.3-3.8
		c0.2-1.1,0.5-2,1-3.2c1.5-3.6,5.4-5.8,10.3-5.8c3.5,0,8,0.6,10.1,3.6c0.5,0.7,1.2,2.4,0.5,4.4c-0.8,2.4-3.1,4.5-7.1,6
		C717.5,157.9,711.5,158.8,707.6,159.3L707.6,159.3z"/>
	<path class="st0" d="M617.5,154.5l-8.1-0.7c-5.5-0.5-7.1-2.9-7.1-5.9c0-3.9,3.1-6.6,9.3-6.6c4.8,0,9.4,1,12.6,3.8l6.5-6.6
		c-4.7-4.2-11.3-5.8-19-5.8c-10.7,0-19.3,5.7-19.3,15.8c0,9.1,5.6,13.5,15.1,14.3l8.2,0.7c5,0.4,6.9,2.7,6.9,6.1
		c0,4.9-4.9,7.1-11.2,7.1c-5,0-10.6-1.1-14.7-5.4l-6.8,6.8c6.1,6,13.1,7.5,21.5,7.5c12.2,0,21.3-5.6,21.3-16.4
		C632.7,159.9,627.1,155.3,617.5,154.5z"/>
	<path class="st0" d="M344.9,234.9c-2.9-1.3-6.6-2-11.1-2c-14.8,0-21.7,9.6-21.7,26.1c0,19.5,10.2,26.3,23,26.3
		c4.8,0,8.4-1.6,11.5-3.9l8.6,3.9v-72.4h-10.3V234.9z M344.9,268.7c0,3.7-3.5,7.7-9.6,7.7c-8.4,0-13-5.6-13-14.3v-7.2
		c0.1-3.1,0.3-4.6,1.3-7c1.6-3.8,5.8-5.7,10.2-5.7c6.3,0,11.1,2,11.1,7.4C344.9,254.4,344.9,263.9,344.9,268.7z"/>
	<path class="st0" d="M449.8,270.3v-57.4h-10.3v58c0,7.6,4.2,14.2,14,14.2h21.9v-8.8h-20.1C451.2,276.2,449.8,274.2,449.8,270.3z"/>
	<path class="st0" d="M519.1,269.6v-56.7h-10.3v57.4c0,7.9,4.1,14.8,14.3,14.8h5.5v-9.2h-3.7C520.6,275.9,519.1,273.7,519.1,269.6z"
		/>
	<path class="st0" d="M548.2,269.6v-56.7h-10.3v57.4c0,7.9,4.1,14.8,14.3,14.8h5.5v-9.2H554C549.7,275.9,548.2,273.7,548.2,269.6z"
		/>
	<polygon class="st0" points="731,110.1 707.5,120.8 707.5,129.8 731,119.1 	"/>
	<rect class="st1" width="184.3" height="184.3"/>
	<rect x="647.7" y="216.1" class="st1" width="184.3" height="184.3"/>
</g>
</svg>
