<?xml version="1.0" encoding="utf-8"?>
<!-- Generator: Adobe Illustrator 21.0.2, SVG Export Plug-In . SVG Version: 6.00 Build 0)  -->
<svg version="1.1" id="Calque_1" xmlns="http://www.w3.org/2000/svg" xmlns:xlink="http://www.w3.org/1999/xlink" x="0px" y="0px"
	 viewBox="0 0 125 32" style="enable-background:new 0 0 125 32;" xml:space="preserve">
<style type="text/css">
	.st0{fill:#FFFFFF;}
</style>
<path class="st0" d="M0.1,0c9.1,0,18.2,0,27.2,0c0,10.5,0,21,0,31.5c-0.4,0.1-0.7-0.3-1.1-0.4c-1.1-0.5-2.4-1-3.5-1.6
	c-3.3,1.5-7,3-11.6,2.3c-5.8-0.9-9.9-4.7-10.9-10.5C-0.1,19.3,0,17,0,14.4C0,9.7,0,4.8,0,0.2C0,0.1,0,0,0.1,0z M7.6,6.2
	c0,5.4,0,10.7,0,16.1c2,0.9,4,1.9,6.1,2.8c0-6.3,0-12.7,0-19c-2,0-4,0-6,0C7.6,6,7.6,6.1,7.6,6.2z M21.5,19.1
	c-2,0.9-3.9,1.8-5.9,2.6c0,1.1,0,2.2,0,3.3c2-0.8,3.9-1.8,5.9-2.6C21.5,21.3,21.6,20.1,21.5,19.1z"/>
<g>
	<path class="st0" d="M40.1,12.2l2.4,8.1l2.2-7.6c0.2-0.8,0.4-1.3,0.5-1.6s0.3-0.6,0.6-0.8c0.3-0.3,0.7-0.4,1.3-0.4
		c0.5,0,1,0.1,1.3,0.4s0.5,0.5,0.6,0.9c0.1,0.3,0.3,0.8,0.5,1.6l2.2,7.6l2.4-8.1c0.2-0.6,0.3-1,0.4-1.3s0.3-0.5,0.5-0.7
		s0.6-0.3,1-0.3c0.4,0,0.8,0.2,1.1,0.5c0.3,0.3,0.5,0.7,0.5,1.1c0,0.4-0.1,0.9-0.4,1.7l-3,8.7c-0.3,0.7-0.5,1.3-0.6,1.6
		c-0.1,0.3-0.4,0.6-0.7,0.9c-0.3,0.3-0.7,0.4-1.3,0.4c-0.6,0-1-0.1-1.3-0.4s-0.5-0.6-0.7-1s-0.3-0.9-0.5-1.6L47,14.7l-2,7.1
		c-0.3,1-0.6,1.7-0.9,2.2s-0.9,0.8-1.6,0.8c-0.4,0-0.7-0.1-1-0.2s-0.5-0.4-0.7-0.7c-0.2-0.3-0.4-0.6-0.5-1c-0.1-0.4-0.3-0.7-0.3-0.9
		L37,13.2c-0.3-0.8-0.4-1.4-0.4-1.7c0-0.4,0.2-0.7,0.5-1.1c0.3-0.3,0.7-0.5,1.1-0.5c0.6,0,1,0.2,1.2,0.5
		C39.6,10.8,39.8,11.4,40.1,12.2z"/>
	<path class="st0" d="M69.8,18.3h-7.1c0,0.8,0.2,1.6,0.5,2.2c0.3,0.6,0.8,1.1,1.3,1.4c0.5,0.3,1.1,0.5,1.8,0.5
		c0.4,0,0.8-0.1,1.2-0.2c0.4-0.1,0.7-0.3,1-0.5c0.3-0.2,0.6-0.5,0.9-0.7s0.7-0.6,1.1-1c0.2-0.2,0.5-0.2,0.8-0.2
		c0.4,0,0.7,0.1,0.9,0.3s0.3,0.5,0.3,0.9c0,0.3-0.1,0.7-0.4,1.2c-0.3,0.4-0.6,0.9-1.2,1.3c-0.5,0.4-1.2,0.7-2,1
		c-0.8,0.3-1.7,0.4-2.7,0.4c-2.3,0-4.2-0.7-5.5-2c-1.3-1.3-1.9-3.1-1.9-5.4c0-1.1,0.2-2.1,0.5-3c0.3-0.9,0.8-1.7,1.4-2.4
		c0.6-0.7,1.4-1.2,2.3-1.5s1.9-0.5,3-0.5c1.4,0,2.6,0.3,3.7,0.9c1,0.6,1.8,1.4,2.3,2.3s0.8,1.9,0.8,2.9c0,0.9-0.3,1.5-0.8,1.8
		C71.5,18.1,70.8,18.3,69.8,18.3z M62.7,16.2h6.6c-0.1-1.2-0.4-2.2-1-2.8S67,12.5,66,12.5c-0.9,0-1.7,0.3-2.2,0.9S62.8,15,62.7,16.2
		z"/>
	<path class="st0" d="M78.9,6.6v5.6c0.7-0.7,1.4-1.3,2.1-1.6s1.6-0.6,2.6-0.6c1.2,0,2.3,0.3,3.2,0.9c0.9,0.6,1.6,1.4,2.1,2.5
		s0.8,2.4,0.8,3.9c0,1.1-0.1,2.1-0.4,3s-0.7,1.7-1.2,2.4c-0.5,0.7-1.2,1.2-1.9,1.6c-0.8,0.4-1.6,0.6-2.5,0.6c-0.6,0-1.1-0.1-1.6-0.2
		c-0.5-0.1-0.9-0.3-1.3-0.5c-0.3-0.2-0.6-0.4-0.9-0.7c-0.2-0.2-0.6-0.6-1-1v0.4c0,0.7-0.2,1.2-0.5,1.6s-0.7,0.5-1.3,0.5
		c-0.5,0-0.9-0.2-1.2-0.5s-0.5-0.9-0.5-1.6V6.8c0-0.7,0.1-1.3,0.4-1.7c0.3-0.4,0.7-0.6,1.2-0.6c0.6,0,1,0.2,1.3,0.5
		C78.8,5.4,78.9,6,78.9,6.6z M79.1,17.4c0,1.5,0.3,2.6,1,3.3c0.7,0.8,1.5,1.2,2.6,1.2c0.9,0,1.7-0.4,2.4-1.2c0.7-0.8,1-1.9,1-3.4
		c0-1-0.1-1.8-0.4-2.5c-0.3-0.7-0.7-1.2-1.2-1.6c-0.5-0.4-1.1-0.6-1.8-0.6c-0.7,0-1.3,0.2-1.9,0.6c-0.5,0.4-1,0.9-1.3,1.6
		C79.2,15.6,79.1,16.5,79.1,17.4z"/>
	<path class="st0" d="M92.8,10.3h0.4V8.1c0-0.6,0-1,0-1.4s0.1-0.6,0.3-0.9c0.1-0.2,0.3-0.5,0.6-0.6S94.7,5,95,5
		c0.5,0,0.9,0.2,1.3,0.5c0.2,0.2,0.4,0.5,0.5,0.8c0.1,0.3,0.1,0.8,0.1,1.4v2.5h1.3c0.5,0,0.9,0.1,1.2,0.4c0.3,0.2,0.4,0.6,0.4,0.9
		c0,0.5-0.2,0.8-0.6,1c-0.4,0.2-0.9,0.3-1.7,0.3h-0.7v6.7c0,0.6,0,1,0.1,1.3c0,0.3,0.1,0.6,0.3,0.7c0.2,0.2,0.5,0.3,0.8,0.3
		c0.2,0,0.5,0,0.9-0.1s0.6-0.1,0.9-0.1c0.3,0,0.6,0.1,0.8,0.4s0.4,0.5,0.4,0.9c0,0.6-0.3,1-1,1.3c-0.6,0.3-1.6,0.5-2.8,0.5
		c-1.1,0-2-0.2-2.6-0.6c-0.6-0.4-1-0.9-1.2-1.6s-0.3-1.6-0.3-2.7v-7h-0.5c-0.5,0-0.9-0.1-1.2-0.4s-0.4-0.6-0.4-0.9
		c0-0.4,0.1-0.7,0.4-0.9C91.9,10.4,92.3,10.3,92.8,10.3z"/>
	<path class="st0" d="M104.9,12.2l2.9,8.3l3.2-8.6c0.2-0.7,0.5-1.2,0.7-1.5c0.2-0.3,0.6-0.4,1.1-0.4c0.5,0,0.9,0.2,1.2,0.5
		c0.3,0.3,0.5,0.7,0.5,1.1c0,0.2,0,0.3-0.1,0.6c-0.1,0.2-0.1,0.4-0.2,0.6c-0.1,0.2-0.2,0.4-0.3,0.6l-3.5,8.7
		c-0.1,0.2-0.2,0.6-0.4,0.9c-0.2,0.4-0.3,0.7-0.5,1s-0.4,0.5-0.7,0.6s-0.6,0.2-1,0.2c-0.5,0-0.9-0.1-1.2-0.4
		c-0.3-0.2-0.5-0.5-0.7-0.8c-0.1-0.3-0.4-0.8-0.7-1.7l-3.5-8.6c-0.1-0.2-0.2-0.4-0.2-0.6c-0.1-0.2-0.2-0.4-0.2-0.7
		c-0.1-0.2-0.1-0.4-0.1-0.6c0-0.2,0.1-0.5,0.2-0.7c0.2-0.2,0.4-0.4,0.6-0.6c0.3-0.2,0.6-0.2,0.9-0.2c0.6,0,1,0.2,1.2,0.5
		C104.4,10.8,104.6,11.4,104.9,12.2z"/>
</g>
</svg>
